# xmcd
#
# Track frame offsets: 
#        150
#        2439
#        19287
#        42390
#        59092
#        75299
#        96278
#        111350
#        131521
#        146558
#        162013
#
# Disc length: 2465 seconds
#
# Revision: 0
# Processed by: cddbd v1.5.2PL0 Copyright (c) Steve Scherf et al.
# Submitted via: ExactAudioCopy v1.3
#
DISCID=8a099f0b
DTITLE=Dry Johnson - Long Live Them Blues Vol. 1
DYEAR=2018
DGENRE=Blues, Electric Blues
TTITLE0=DJ Intro
TTITLE1=Daddy's Got A Cadillac (feat. Mike Zito and Annika Chambers)
TTITLE2=Long Live Them Blues (feat. Trudy Lynn and Steve Krase)
TTITLE3=Hit The Highway (feat. Jonn Del Toro Richardson)
TTITLE4=Drunk Girl With A Tambourine (feat. Snit)
TTITLE5=Too Many Hipsters (feat. Mighty Orq)
TTITLE6=Juke Joint (feat. Mighty Orq, Mike Zito and Jonn Del Toro Richar
TTITLE6=dson)
TTITLE7=I Walk Alone (feat. James Wilhite)
TTITLE8=Trashy Women and Cheap Guitars
TTITLE9=Fried Chicken
TTITLE10=Little Bird
EXTD=
EXTT0=
EXTT1=
EXTT2=
EXTT3=
EXTT4=
EXTT5=
EXTT6=
EXTT7=
EXTT8=
EXTT9=
EXTT10=
PLAYORDER=
